<svg width="73" height="46" viewBox="0 0 73 46" fill="none" xmlns="http://www.w3.org/2000/svg">
<g clip-path="url(#clip0_2274_59)">
<path fill-rule="evenodd" clip-rule="evenodd" d="M21.2368 39.0526L21.0913 38.5315H22.8252L24.8071 43.2673L24.8024 39.0654L24.5671 38.5274H26.6054L26.3995 39.0654V45.4681L26.545 45.9899H24.8098L22.8272 41.3637L22.8319 45.456L23.0672 45.9939H21.0296L21.2355 45.456V39.0526H21.2368ZM36.7793 6.89496C36.2429 8.90279 38.4199 11.1473 40.9141 7.28429L40.2886 6.82839C40.5543 6.39357 40.9418 6.04689 41.4028 5.83163C41.8638 5.61638 42.3778 5.54209 42.8806 5.61804C42.0478 6.23693 41.3845 7.0569 40.9523 8.00175H40.957C39.5403 10.715 42.5125 12.7652 44.459 9.75004L43.3969 8.95591C44.4355 7.27891 46.0648 6.38997 48.5509 6.55135C45.1314 9.07426 43.0711 13.3609 42.9309 20.1402C38.6471 19.0341 34.1538 19.0341 29.8699 20.1402C29.7298 13.3609 27.6694 9.07493 24.2506 6.55135C26.7361 6.38997 28.3654 7.27891 29.404 8.95591L28.3433 9.75273C30.2877 12.7685 33.2626 10.7183 31.8452 8.00444L31.866 7.99436C31.4338 7.0531 30.7719 6.23628 29.9417 5.61938C30.4445 5.54352 30.9585 5.61785 31.4195 5.8331C31.8804 6.04835 32.268 6.39498 32.5338 6.82973L31.9082 7.28563C34.389 11.1339 36.5526 8.91624 36.027 6.91177C35.6457 6.87304 35.2944 6.68702 35.0475 6.39308C34.8006 6.09915 34.6774 5.72037 34.7041 5.33697L35.5885 0.00134483V4.87098C35.5885 5.07696 35.6701 5.2745 35.8153 5.42015C35.9605 5.5658 36.1575 5.64762 36.3629 5.64762C36.5683 5.64762 36.7652 5.5658 36.9105 5.42015C37.0557 5.2745 37.1373 5.07696 37.1373 4.87098V0L38.0223 5.33562C38.0495 5.70539 37.936 6.07174 37.7048 6.36103C37.4735 6.65031 37.1417 6.84107 36.7759 6.89496H36.7793ZM31.0748 14.2418L30.9347 14.6768H30.4781L30.8482 14.9458L30.706 15.3809L31.0741 15.1119L31.4429 15.3809L31.3014 14.9445L31.6709 14.6755H31.2149L31.0741 14.2404L31.0748 14.2418ZM41.8273 14.2418L41.6872 14.6768H41.2313L41.6 14.9458L41.4585 15.3809L41.8273 15.1119L42.1954 15.3809L42.0559 14.9445L42.4261 14.6755H41.9695L41.8293 14.2404L41.8273 14.2418ZM36.3964 12.1432V16.9752L36.2449 17.3786C36.7464 17.375 37.249 17.388 37.7528 17.4176L37.5785 17.0014V13.9177C37.8221 14.5179 38.0661 15.1213 38.3106 15.7278C38.5547 16.3364 38.8001 16.9509 39.0482 17.5655C39.4755 17.6395 39.9033 17.7276 40.3315 17.8298C40.2946 17.6919 40.2591 17.5548 40.2235 17.4176V12.6737L40.3764 12.3227C39.8731 12.1743 39.3702 12.0493 38.8678 11.9475L39.0415 12.3825V15.5295C38.7961 14.8987 38.5507 14.268 38.3039 13.6467C38.0572 13.0254 37.8151 12.4041 37.5718 11.7888C37.1436 11.765 36.7158 11.7543 36.2885 11.7565C36.324 11.887 36.3595 12.0161 36.3964 12.1465V12.1432ZM33.7239 13.1289V16.5986C33.9921 16.5556 34.2603 16.5186 34.5285 16.485C34.6176 16.3828 34.7068 16.2832 34.7966 16.183V15.4293L34.5687 15.1664C34.2871 15.3768 34.0061 15.5893 33.7252 15.8072V14.6412C34.0828 14.3668 34.4404 14.0997 34.798 13.8397V13.2345L34.5298 12.9951C34.2616 13.0341 33.9934 13.0765 33.7252 13.1249L33.7239 13.1289ZM32.45 12.3462L32.5331 12.706V17.4674C32.5049 17.6018 32.4788 17.7363 32.452 17.8708L32.6303 17.8345C32.9955 17.7596 33.3609 17.6924 33.7266 17.6328C34.2026 17.5633 34.6789 17.5059 35.1553 17.4606C35.4235 17.1957 35.6864 16.9314 35.9519 16.6719V14.8967C35.7957 14.7716 35.6394 14.6459 35.4825 14.5235C35.6388 14.3763 35.795 14.2317 35.9519 14.0858V12.5459C35.6837 12.3086 35.4209 12.0753 35.1553 11.8446C34.6784 11.9006 34.2021 11.9704 33.7266 12.0537C33.2992 12.1386 32.8742 12.235 32.452 12.3429L32.45 12.3462ZM0.120016 42.5505C6.52901 41.36 12.994 40.496 19.4902 39.9617V38.6693C12.9743 39.3453 6.50558 40.4191 0.120016 41.8848V42.5505ZM53.7022 40.0626C60.1344 40.6113 66.567 41.4406 73 42.5505V41.8848C66.6284 40.4935 60.1864 39.449 53.7022 38.7561V40.0646V40.0626ZM10.5232 22.7519C10.6177 23.1009 10.7123 23.4498 10.8142 23.7968C10.479 25.7818 10.1437 27.7937 9.81652 29.8257C9.48664 31.8853 9.16146 33.9644 8.83359 36.0792C8.67335 36.449 8.5131 36.8249 8.35286 37.1967C9.54698 37.0306 10.7411 36.8861 11.9346 36.7388C11.8474 36.4221 11.7669 36.1 11.6865 35.7779C11.7598 35.1333 11.84 34.49 11.9272 33.8481C12.5896 33.8024 13.2521 33.756 13.9145 33.7136C14.0023 34.3221 14.0888 34.924 14.1827 35.5291C14.1029 35.8539 14.0218 36.1794 13.95 36.5021C15.1147 36.3865 16.2967 36.2674 17.4741 36.1531C17.3201 35.867 17.1697 35.579 17.0229 35.2891C16.6733 33.5 16.3238 31.6894 15.9742 29.8573C15.6213 27.9871 15.2767 26.1153 14.9403 24.242C15.0423 23.9481 15.1415 23.6543 15.2535 23.3624C13.6738 23.1795 12.0941 22.9657 10.5212 22.7573L10.5232 22.7519ZM12.9041 27.0231C12.9986 27.7224 13.1005 28.417 13.1951 29.1109C13.2896 29.8049 13.3915 30.4921 13.4934 31.1786L12.3436 31.2015C12.4381 30.4995 12.5259 29.7975 12.6205 29.0995C12.715 28.4015 12.8022 27.7123 12.9041 27.0231ZM0 21.0715L0.402289 21.1441C1.23234 21.2934 2.06911 21.444 2.90654 21.5926C3.99138 21.789 5.07621 21.9739 6.16776 22.142C6.77119 22.922 7.37462 23.6825 7.98811 24.4282V26.4555C7.98811 27.128 7.99482 27.8058 7.99482 28.4788C7.63723 28.8303 7.27964 29.1871 6.92205 29.5493C7.27686 29.9085 7.63604 30.2634 7.99951 30.6138V31.7885C7.99951 32.9558 8.00689 34.1231 8.00689 35.2884C7.40256 36.0133 6.79913 36.7529 6.19659 37.5074C5.1037 37.6654 4.01954 37.8389 2.9347 38.0225C2.09794 38.165 1.25849 38.3089 0.430449 38.4474L0.037547 38.5147C0.0878331 38.1005 0.146165 37.6822 0.211872 37.2653L0.189746 29.7847C0.182594 27.2909 0.182594 24.7962 0.189746 22.3007C0.122698 21.8925 0.0590024 21.4803 0.000670481 21.0688L0 21.0715ZM2.90453 24.7503C2.90453 26.4538 2.90698 28.1597 2.9119 29.8681C2.91682 31.5764 2.92173 33.2812 2.92665 34.9825C3.53813 34.9152 4.14961 34.8527 4.76176 34.7915L5.37324 33.9752C5.37324 33.2792 5.36586 32.5813 5.36586 31.8813C5.18974 31.6186 5.01741 31.3534 4.84892 31.0858C4.20124 31.5908 3.56026 32.1133 2.91928 32.6478C2.91928 31.5047 2.9119 30.3616 2.9119 29.2125C3.72721 28.6059 4.54028 28.0191 5.35111 27.4521V25.7704C5.14729 25.5014 4.94324 25.2286 4.73896 24.952L2.90453 24.7503ZM18.5428 24.5674C18.4628 24.2738 18.3828 23.9784 18.3028 23.6812C20.3337 23.8546 22.372 24.0174 24.4109 24.1579C25.0076 24.7187 25.605 25.2701 26.2091 25.8174C26.2091 26.5174 26.2058 27.2174 26.2091 27.9154C26.2125 28.6133 26.2165 29.3153 26.2165 30.0133C25.7431 30.4768 25.27 30.9435 24.7971 31.4133C25.0881 31.9747 25.3938 32.5308 25.6855 33.0822C25.9771 33.6336 26.2822 34.1789 26.5879 34.7229C26.836 34.9804 27.0901 35.238 27.3449 35.4915L23.4715 35.6932L23.6727 34.852C23.4179 34.3235 23.1712 33.7896 22.9231 33.2557C22.675 32.7218 22.4283 32.1839 22.1802 31.6419C21.8671 31.6473 21.554 31.6553 21.2415 31.6607C21.2415 32.2161 21.2489 32.7736 21.2489 33.3276C21.2489 33.8817 21.2563 34.4365 21.271 34.9912C21.4051 35.2676 21.5332 35.5426 21.6733 35.8156C20.5154 35.9037 19.3655 35.9891 18.215 36.0792C18.3312 35.7721 18.4476 35.4668 18.5643 35.1633C18.5569 33.3989 18.5569 31.6325 18.5502 29.8667C18.5435 28.101 18.5428 26.3338 18.5428 24.5674ZM21.2301 26.1066C21.2301 26.6519 21.2268 27.1972 21.2301 27.7405C21.2335 28.2838 21.2375 28.8312 21.2375 29.3765C21.8269 29.3806 22.4169 29.3859 23.0136 29.394C23.225 29.2053 23.436 29.0159 23.6465 28.8258C23.6392 28.1534 23.6392 27.481 23.6392 26.8086C23.4139 26.6001 23.1953 26.387 22.9767 26.1731C22.3947 26.1523 21.8121 26.1294 21.2295 26.1059L21.2301 26.1066ZM28.0811 24.365C28.2152 24.369 28.3493 24.3751 28.4888 24.3785C29.3188 24.4047 30.1489 24.4316 30.9863 24.4605C32.0705 24.4928 33.1553 24.5136 34.2475 24.521C34.851 25.0152 35.4544 25.5074 36.0672 26.0003V27.4749C36.0672 27.9651 36.0753 28.4593 36.0753 28.9489L35.0025 29.7329C35.3601 29.9889 35.7177 30.2439 36.0753 30.4981V31.3514C36.0753 32.2 36.0826 33.0466 36.0826 33.8958C35.4711 34.3726 34.8664 34.8513 34.2616 35.3301C33.1694 35.3375 32.0859 35.3435 31.0004 35.3758C30.1632 35.4005 29.3331 35.4258 28.5102 35.4518C28.3714 35.4518 28.2333 35.4599 28.1026 35.4632C28.1609 35.2017 28.2192 34.9408 28.2843 34.6792C28.2771 33.0887 28.2724 31.4973 28.2702 29.905C28.2668 28.3141 28.2628 26.7218 28.2702 25.1309C28.2031 24.8754 28.1361 24.6199 28.0811 24.3623V24.365ZM30.9863 26.5571C30.9863 27.6894 30.993 28.8265 30.993 29.9568C30.993 31.0872 30.993 32.2235 31.0004 33.3539C31.6119 33.3445 32.2233 33.335 32.8348 33.335C33.036 33.1575 33.2431 32.982 33.4463 32.8065C33.4463 32.3217 33.4396 31.8396 33.4396 31.3548C33.2653 31.1678 33.0903 30.9829 32.922 30.796C32.2743 31.1275 31.6333 31.4617 30.993 31.8046V29.5265C31.8083 29.1102 32.6243 28.7041 33.4322 28.2886V27.1233C33.2311 26.9471 33.0246 26.7702 32.8207 26.5947C32.2093 26.5833 31.5978 26.5699 30.987 26.5591L30.9863 26.5571ZM37.0428 24.5398C37.1447 24.7893 37.2439 25.0415 37.3559 25.2909V29.9219C37.3559 31.465 37.3639 33.0096 37.3706 34.5548C37.254 34.8103 37.138 35.0658 37.028 35.3214C39.6127 35.3557 42.2048 35.4135 44.7888 35.5009C44.9276 34.7303 45.0664 33.959 45.2119 33.1851L44.3161 33.3868C42.9041 33.3545 41.4914 33.3196 40.0867 33.2994V30.7362C40.8725 30.7362 41.659 30.7476 42.4455 30.7509L43.5384 31.0334C43.5303 30.1733 43.5303 29.3113 43.5303 28.4513L42.5246 28.7202C41.7093 28.7276 40.894 28.7263 40.0787 28.7297V26.4845C41.0321 26.4771 41.9929 26.465 42.9544 26.4428C43.4908 26.5517 44.0325 26.6579 44.5783 26.7689C44.404 25.9696 44.2294 25.1717 44.0546 24.3751C41.7167 24.4686 39.3801 24.5049 37.0428 24.5412V24.5398ZM46.2458 25.9781C46.2458 27.2941 46.2418 28.6113 46.2458 29.9259C46.2498 31.2405 46.2525 32.5618 46.2525 33.8777C46.8358 34.4761 47.4178 35.0833 48.0071 35.6972C49.3615 35.777 50.7181 35.8718 52.077 35.9817L53.2644 37.0757C53.8321 36.5893 54.4 36.0962 54.9681 35.5964C54.6543 35.2111 54.3418 34.8332 54.0361 34.4533C54.0361 32.9679 54.0287 31.4819 54.0287 29.9938V25.537C53.4029 24.9681 52.7742 24.4024 52.1427 23.8398C50.7883 23.9575 49.4346 24.047 48.0883 24.133C47.4692 24.7606 46.855 25.3761 46.2458 25.9795V25.9781ZM48.9686 26.8254C49.1584 26.6364 49.3474 26.4495 49.5439 26.2565C49.9589 26.2431 50.3739 26.2263 50.7883 26.2074C50.9787 26.3843 51.1752 26.5604 51.3716 26.7353V29.8822C51.3716 30.9332 51.3716 31.9842 51.379 33.0331C51.1383 33.218 50.9056 33.4016 50.673 33.5825C50.3113 33.5633 49.9495 33.5481 49.5875 33.5368C49.3769 33.335 49.1724 33.1434 48.9693 32.9471C48.9619 31.929 48.9619 30.9069 48.9619 29.8862C48.9619 28.8655 48.9612 27.8448 48.9686 26.8254ZM55.2443 23.6058C55.3337 23.8918 55.4209 24.1785 55.5058 24.4659V34.4042C56.1106 35.0793 56.7151 35.7678 57.3195 36.4698C58.6879 36.6104 60.0644 36.7731 61.4402 36.9446C62.0513 36.3322 62.6627 35.7033 63.2747 35.0578C63.268 33.1562 63.2657 31.2559 63.268 29.357V23.6543L63.5073 22.6073C62.4151 22.7452 61.3309 22.8837 60.2461 23.0195C60.3333 23.3382 60.4211 23.6563 60.5143 23.973C60.5217 25.5579 60.5364 27.1448 60.5431 28.7317C60.5498 30.3186 60.5653 31.9088 60.5793 33.4964C60.3782 33.7445 60.177 33.992 59.9826 34.2361C59.5528 34.2018 59.123 34.1688 58.6946 34.1372L58.1703 33.3552V24.2104C58.2722 23.8896 58.3714 23.5695 58.4834 23.2475L55.2436 23.6038L55.2443 23.6058ZM64.6357 22.4426C64.7377 22.7747 64.8463 23.1062 64.9556 23.4418V36.332C64.8396 36.6756 64.7229 37.0206 64.6136 37.3581C67.1981 37.7284 69.7875 38.1247 72.3818 38.5469C72.5199 37.3581 72.6607 36.1634 72.8042 34.963L71.9017 35.2225C70.4888 35.0773 69.0786 34.9356 67.671 34.7975V31.0569C68.4582 31.0737 69.2446 31.0892 70.0371 31.1046L71.1294 31.5511V27.5859C70.7941 27.7392 70.4589 27.8858 70.1236 28.0324C69.301 28.0667 68.485 28.103 67.669 28.1332V24.8653C68.6305 24.7725 69.5919 24.6636 70.5521 24.5526C71.0885 24.6786 71.6271 24.807 72.1679 24.9379C71.9936 23.7078 71.8191 22.4872 71.6443 21.2759C69.307 21.6915 66.9697 22.0806 64.6324 22.4432L64.6357 22.4426ZM72.8049 17.5339C63.4782 19.1191 54.0683 20.1655 44.6219 20.6681V22.0438C54.097 21.4572 63.5163 20.1726 72.8036 18.2003V17.5346L72.8049 17.5339ZM29.8679 20.7615V22.1117C34.1598 21.0521 38.6438 21.0521 42.9356 22.1117V20.7669C38.6546 19.6213 34.1489 19.6213 29.8679 20.7669V20.7615ZM0 17.5339V18.1996C9.28724 20.1719 18.7065 21.4566 28.1817 22.0432V20.6674C18.7357 20.1657 9.32634 19.1202 0 17.5359L0 17.5339ZM46.7225 39.0513L46.577 38.5301H48.3102L50.2928 43.266L50.2881 39.064L50.0528 38.5261H52.091L51.8852 39.064V45.4668L52.0307 45.9886H50.2962L48.3135 41.3637L48.3182 45.456L48.5536 45.9939H46.5153L46.7212 45.456V39.0526L46.7225 39.0513ZM41.2916 39.6679L41.2849 44.867L42.3241 46.002H44.7258L45.8831 44.867V39.6463L44.7714 38.5315H42.3798L41.2909 39.6692L41.2916 39.6679ZM42.8967 40.2872L43.2393 39.9402H43.9708L44.3175 40.2872V44.2013L43.8984 44.5651H43.2581L42.8934 44.2033L42.8967 40.2872ZM40.3375 39.064L40.5386 38.5301H38.5339L38.7317 39.064V45.452L38.5339 45.9866H40.5366L40.3355 45.452V39.064H40.3375ZM34.2113 39.8958V45.456L34.0135 45.9906H36.0162L35.8151 45.456V39.8958H37.0434L38.0002 40.152L37.6784 38.5288H32.3487L32.0262 40.152L32.983 39.8958H34.2106H34.2113ZM28.4184 38.5315H31.1673L30.9823 39.0694L32.1958 45.4574L32.464 45.9913H30.3762L30.5103 45.4574L30.3594 44.4299H29.1861L29.0365 45.4574L29.1861 45.9913H27.0747L27.3583 45.4574L28.5437 39.0694L28.4184 38.5315ZM29.7754 40.7175L29.4361 43.0037H30.1147L29.7754 40.7175Z" fill="#FF6301"/>
</g>
<defs>
<clipPath id="clip0_2274_59">
<rect width="73" height="46" fill="white"/>
</clipPath>
</defs>
</svg>
